<svg xmlns="http://www.w3.org/2000/svg" viewBox="0 0 40 40"><defs><style>.cls-1{fill:#f1f4f8;}.cls-2{fill:#07172e;}</style></defs><g id="Слой_2" data-name="Слой 2"><g id="Слой_1-2" data-name="Слой 1"><circle class="cls-1" cx="20" cy="20" r="20"/><path class="cls-2" d="M27.59,15.73a1.68,1.68,0,0,0-1.26-.59h-8.6a.62.62,0,0,0,0,1.23h8.6a.46.46,0,0,1,.35.16.47.47,0,0,1,.11.39L26,22.27a.86.86,0,0,1-.84.74H16.47a.85.85,0,0,1-.84-.79l-.77-9.36a.61.61,0,0,0-.49-.56L12.7,12a.59.59,0,0,0-.69.5.61.61,0,0,0,.49.71l1.21.21.73,8.89a2,2,0,0,0,2,1.91H25.2a2.05,2.05,0,0,0,2-1.78L28,17.09A1.72,1.72,0,0,0,27.59,15.73Z"/><path class="cls-2" d="M15.13,26.76A1.21,1.21,0,1,1,16.34,28,1.22,1.22,0,0,1,15.13,26.76Z"/><path class="cls-2" d="M24.13,26.76A1.21,1.21,0,1,1,25.34,28,1.22,1.22,0,0,1,24.13,26.76Z"/><path class="cls-2" d="M24.52,18.77a.6.6,0,0,1-.6.61H21.7a.61.61,0,0,1,0-1.22h2.22A.6.6,0,0,1,24.52,18.77Z"/></g></g></svg>