<svg xmlns="http://www.w3.org/2000/svg" viewBox="0 0 40 40"><defs><style>.cls-1{fill:#f1f4f8;}.cls-2{fill:#07172e;}</style></defs><g id="Слой_2" data-name="Слой 2"><g id="Слой_1-2" data-name="Слой 1"><circle class="cls-1" cx="20" cy="20" r="20"/><path class="cls-2" d="M27.09,16.51A2.46,2.46,0,0,1,28,18.4v6.43A3.14,3.14,0,0,1,24.86,28H23.47A1.53,1.53,0,0,1,22,26.46v-2.9a.41.41,0,0,0-.4-.41H19.47a.41.41,0,0,0-.29.13.38.38,0,0,0-.11.29v1.11a.63.63,0,1,1-1.25,0V23.57a1.66,1.66,0,0,1,1.66-1.68h2.08a1.68,1.68,0,0,1,1.65,1.68v2.89a.27.27,0,0,0,.26.27H24.9a1.88,1.88,0,0,0,1.87-1.89V18.41a1.19,1.19,0,0,0-.44-.91l-4.8-3.86a1.61,1.61,0,0,0-2.08,0L17.91,14.8a.63.63,0,0,1-.89-.15.64.64,0,0,1,.14-.89l1.52-1.12a2.87,2.87,0,0,1,3.61,0Z"/><path class="cls-2" d="M16.13,26.72h3.19v0a.63.63,0,1,1,0,1.26H16.13A3.15,3.15,0,0,1,13,24.84V18.41a2.44,2.44,0,0,1,.94-1.89l.57-.43a.62.62,0,0,1,.77.19.65.65,0,0,1,0,.81l-.57.42a1.19,1.19,0,0,0-.42.9v6.42A1.89,1.89,0,0,0,16.13,26.72Z"/></g></g></svg>