<svg xmlns="http://www.w3.org/2000/svg" viewBox="0 0 40 40"><defs><style>.cls-1{fill:#f1f4f8;}.cls-2{fill:#07172e;}</style></defs><g id="Слой_2" data-name="Слой 2"><g id="Слой_1-2" data-name="Слой 1"><circle class="cls-1" cx="20" cy="20" r="20"/><path class="cls-2" d="M27.8,26.89,25.05,24.2,25,24.1a.64.64,0,0,0-.91,0,6.49,6.49,0,0,1-8.41.27,6.13,6.13,0,0,1-1.37-8.12,6.46,6.46,0,0,1,8.06-2.38,6.19,6.19,0,0,1,3.45,7.51.65.65,0,0,0,1.24.37,7.46,7.46,0,0,0-4-9,7.8,7.8,0,0,0-9.7,2.52A7.4,7.4,0,0,0,14.44,25a7.83,7.83,0,0,0,10,.42l2.43,2.38a.67.67,0,0,0,.91,0,.63.63,0,0,0,0-.9Z"/></g></g></svg>